<?xml version="1.0" encoding="UTF-8" standalone="no"?>
<svg
   viewBox="0 0 22 22"
   width="22"
   height="22"
   version="1.1"
   id="svg185"
   sodipodi:docname="instagram.svg"
   inkscape:version="1.2.2 (732a01da63, 2022-12-09)"
   xmlns:inkscape="http://www.inkscape.org/namespaces/inkscape"
   xmlns:sodipodi="http://sodipodi.sourceforge.net/DTD/sodipodi-0.dtd"
   xmlns="http://www.w3.org/2000/svg"
   xmlns:svg="http://www.w3.org/2000/svg">
  <defs
     id="defs189" />
  <sodipodi:namedview
     id="namedview187"
     pagecolor="#ffffff"
     bordercolor="#000000"
     borderopacity="0.25"
     inkscape:showpageshadow="2"
     inkscape:pageopacity="0.0"
     inkscape:pagecheckerboard="0"
     inkscape:deskcolor="#d1d1d1"
     showgrid="false"
     inkscape:zoom="26.03125"
     inkscape:cx="4.1104442"
     inkscape:cy="11.006002"
     inkscape:window-width="1920"
     inkscape:window-height="991"
     inkscape:window-x="-9"
     inkscape:window-y="1304"
     inkscape:window-maximized="1"
     inkscape:current-layer="svg185" />
  <path
     d="M 6.46875,0 C 2.917969,0 0,2.914063 0,6.46875 v 9.0625 C 0,19.082031 2.914063,22 6.46875,22 h 9.0625 C 19.082031,22 22,19.085938 22,15.53125 V 6.46875 C 22,2.917969 19.085938,0 15.53125,0 Z m 0,2 h 9.0625 C 18.003906,2 20,3.996094 20,6.46875 v 9.0625 C 20,18.003906 18.003906,20 15.53125,20 H 6.46875 C 3.996094,20 2,18.003906 2,15.53125 V 6.46875 C 2,3.996094 3.996094,2 6.46875,2 Z m 10.4375,2.1875 C 16.402344,4.1875 16,4.589844 16,5.09375 16,5.597656 16.402344,6 16.90625,6 17.410156,6 17.8125,5.597656 17.8125,5.09375 17.8125,4.589844 17.410156,4.1875 16.90625,4.1875 Z M 11,5 c -3.300781,0 -6,2.699219 -6,6 0,3.300781 2.699219,6 6,6 3.300781,0 6,-2.699219 6,-6 0,-3.300781 -2.699219,-6 -6,-6 z m 0,2 c 2.222656,0 4,1.777344 4,4 0,2.222656 -1.777344,4 -4,4 C 8.777344,15 7,13.222656 7,11 7,8.777344 8.777344,7 11,7 Z"
     id="path183" />
</svg>
