<?xml version="1.0" encoding="UTF-8" standalone="no"?>
<svg
   viewBox="0 0 46 46"
   width="46"
   height="46"
   version="1.1"
   id="svg4"
   sodipodi:docname="github.svg"
   inkscape:version="1.2.2 (732a01da63, 2022-12-09)"
   xmlns:inkscape="http://www.inkscape.org/namespaces/inkscape"
   xmlns:sodipodi="http://sodipodi.sourceforge.net/DTD/sodipodi-0.dtd"
   xmlns="http://www.w3.org/2000/svg"
   xmlns:svg="http://www.w3.org/2000/svg">
  <defs
     id="defs8" />
  <sodipodi:namedview
     id="namedview6"
     pagecolor="#ffffff"
     bordercolor="#000000"
     borderopacity="0.25"
     inkscape:showpageshadow="2"
     inkscape:pageopacity="0.0"
     inkscape:pagecheckerboard="0"
     inkscape:deskcolor="#d1d1d1"
     showgrid="false"
     inkscape:zoom="16.66"
     inkscape:cx="12.244898"
     inkscape:cy="23.079232"
     inkscape:window-width="1920"
     inkscape:window-height="991"
     inkscape:window-x="-9"
     inkscape:window-y="1304"
     inkscape:window-maximized="1"
     inkscape:current-layer="svg4" />
  <path
     d="M 23,0 C 10.311335,0 0,10.311335 0,23 0,35.688665 10.311335,46 23,46 35.688665,46 46,35.688665 46,23 46,10.311335 35.688665,0 23,0 Z m 0,2 c 11.607335,0 21,9.392665 21,21 0,0.07137 -0.0052,0.141688 -0.0059,0.212891 -0.639614,-0.05904 -1.378633,-0.115115 -2.31836,-0.148438 -1.328718,-0.04712 -3.003522,-0.03347 -4.902343,0.06055 0.07041,-0.490349 0.119767,-0.987623 0.121093,-1.498047 0.09683,-1.872621 -0.53201,-3.624489 -1.554687,-5.171875 0.247069,-0.853726 0.536903,-1.93986 0.609375,-3.171875 0.0826,-1.404278 -0.03862,-2.961438 -1.166016,-4.013672 L 34.494141,9 h -0.394532 c -2.68307,0 -4.519586,1.12321 -5.642578,2.013672 C 26.835529,10.386022 25.01222,10 23,10 20.976367,10 19.135525,10.391416 17.447266,11.017578 16.324911,10.126691 14.486785,9 11.800781,9 h -0.392578 l -0.289062,0.267578 c -1.098185,1.019743 -1.199363,2.534181 -1.13086,3.931641 0.06041,1.232287 0.333451,2.352923 0.576172,3.248047 -1.039964,1.577594 -1.664062,3.374752 -1.664062,5.152343 0,0.511628 0.04758,1.010462 0.117187,1.501953 -1.8057607,-0.08375 -3.4154784,-0.09989 -4.6933592,-0.05469 -0.9397045,0.03324 -1.6787766,0.08884 -2.3183594,0.148437 C 2.0052628,23.129972 2,23.065482 2,23 2,11.392665 11.392665,2 23,2 Z m -10.603516,9.130859 c 2.017583,0.191184 3.535511,1.092113 4.238282,1.716797 l 0.46875,0.414063 0.578125,-0.236328 C 19.263092,12.374205 21.026984,12 23,12 c 1.973016,0 3.737393,0.376076 5.199219,1.015625 l 0.585937,0.257813 0.478516,-0.425782 c 0.703011,-0.624898 2.223512,-1.526102 4.242187,-1.716797 0.268397,0.444982 0.501627,1.077809 0.445313,2.035157 -0.0674,1.145721 -0.373868,2.393642 -0.605469,3.134765 l -0.150391,0.482422 0.298829,0.408203 c 0.989475,1.349285 1.49398,2.809531 1.408203,4.353516 l -0.002,0.02734 v 0.02734 c 0,2.495455 -0.898611,4.49273 -2.8125,5.972657 C 30.174048,29.052199 27.152663,30 22.900391,30 c -4.252273,0 -7.275564,-0.947808 -9.189453,-2.427734 -1.913891,-1.479927 -2.810547,-3.477202 -2.810547,-5.972657 0,-1.464706 0.528917,-3.07601 1.505859,-4.408203 l 0.292969,-0.398437 -0.140625,-0.47461 c -0.231728,-0.787875 -0.515769,-2.064256 -0.572266,-3.216797 -0.04699,-0.958622 0.179893,-1.564535 0.410156,-1.970703 z M 6.8847656,24.021484 c 0.7066919,0.009 1.5166944,0.04717 2.3281254,0.08789 0.07753,0.311797 0.165931,0.618523 0.273437,0.917969 -3.307356,0.06975 -5.7815971,0.40233 -7.3066405,0.6875 -0.064481,-0.50035 -0.1158392,-1.004823 -0.1445313,-1.515625 1.1270496,-0.106957 2.715841,-0.204986 4.8496094,-0.177734 z m 32.2304684,0.01563 c 2.132293,-0.02708 3.720494,0.07105 4.847657,0.177735 -0.02866,0.503484 -0.07914,1.00082 -0.142579,1.49414 -1.579542,-0.289774 -4.120638,-0.622296 -7.513671,-0.675781 0.105304,-0.293526 0.192986,-0.594984 0.269531,-0.900391 0.895119,-0.04798 1.768392,-0.08592 2.539062,-0.0957 z M 9.912109,26.019536 c 0.59674,1.195796 1.449407,2.263488 2.576172,3.134766 1.540544,1.191234 3.543342,2.023541 5.988281,2.46875 -0.319863,0.328651 -0.610782,0.689548 -0.86914,1.070312 l -0.06055,-0.05273 c 0.0055,-0.0063 -0.497125,0.245253 -1.248047,0.3125 C 15.547906,33.020374 14.621615,33 13.800781,33 12.575781,33 12.03621,32.42121 11.173828,31.367188 10.696283,30.72356 10.114101,30.202331 9.548828,29.806641 8.970021,29.401475 8.476259,29.115509 7.8652344,29.013672 L 7.7832031,29 h -0.083984 c -0.4666667,0 -0.9182353,0.03379 -1.3398438,0.515625 -0.2108043,0.240919 -0.356098,0.686936 -0.2617188,1.064453 0.094379,0.377517 0.3332001,0.609503 0.546875,0.751953 1.3667228,0.911149 1.6082638,2.71448 2.4648438,4.31836 C 9.909298,37.244315 11.635662,38 13.400391,38 H 16 v 4.802734 C 8.967811,40.320535 3.6646795,34.204613 2.3320312,26.703125 3.8629338,26.414776 6.4265387,26.068108 9.912109,26.019531 Z m 25.970703,0.0078 c 3.562726,0.0305 6.198238,0.376717 7.78711,0.669922 C 42.339047,34.201504 37.034072,40.31987 30,42.802734 v -5.203125 c 0,-1.584568 -0.520358,-3.331897 -1.425781,-4.789062 -0.274897,-0.442412 -0.598274,-0.860811 -0.958985,-1.236328 2.315219,-0.457379 4.21713,-1.275398 5.697266,-2.419922 1.124324,-0.86939 1.975088,-1.933873 2.570312,-3.126953 z M 21.699219,32.099609 H 24.5 c 0.812821,0 1.680423,0.647791 2.375,1.765625 0.694577,1.117835 1.125,2.618943 1.125,3.734375 v 5.798829 C 26.397408,43.789234 24.72379,44 23,44 21.27621,44 19.602592,43.789234 18,43.398438 v -5.798829 c 0,-1.09074 0.467828,-2.588302 1.208984,-3.710937 0.741157,-1.122635 1.677414,-1.789063 2.490235,-1.789063 z M 10.308594,33.28125 C 11.174368,34.179258 12.222525,35 13.800781,35 c 0.779167,0 1.751703,0.02807 2.675781,-0.05469 0.0033,-2.94e-4 0.0065,-0.0017 0.0098,-0.002 C 16.36458,35.293361 16.273744,35.645529 16.197266,36 h -2.796875 c -1.233334,0 -2.104621,-0.44557 -2.50586,-1.248047 l -0.0078,-0.01367 -0.0059,-0.01172 C 10.716457,34.421191 10.500645,33.81059 10.308594,33.28125 Z"
     id="path2"
     style="fill:#ffffff" />
</svg>
