<?xml version="1.0" encoding="UTF-8" standalone="no"?>
<svg
   viewBox="0 0 48 48"
   width="48"
   height="48"
   version="1.1"
   id="svg185"
   sodipodi:docname="instagram.svg"
   inkscape:version="1.2.2 (732a01da63, 2022-12-09)"
   xmlns:inkscape="http://www.inkscape.org/namespaces/inkscape"
   xmlns:sodipodi="http://sodipodi.sourceforge.net/DTD/sodipodi-0.dtd"
   xmlns="http://www.w3.org/2000/svg"
   xmlns:svg="http://www.w3.org/2000/svg">
  <defs
     id="defs189" />
  <sodipodi:namedview
     id="namedview187"
     pagecolor="#ffffff"
     bordercolor="#000000"
     borderopacity="0.25"
     inkscape:showpageshadow="2"
     inkscape:pageopacity="0.0"
     inkscape:pagecheckerboard="0"
     inkscape:deskcolor="#d1d1d1"
     showgrid="false"
     inkscape:zoom="26.03125"
     inkscape:cx="-2.7659064"
     inkscape:cy="11.044418"
     inkscape:window-width="1920"
     inkscape:window-height="991"
     inkscape:window-x="316"
     inkscape:window-y="1431"
     inkscape:window-maximized="1"
     inkscape:current-layer="svg185" />
  <path
     d="M 14.113636,0 C 6.3664778,0 0,6.3579556 0,14.113636 V 33.886364 C 0,41.633522 6.3579556,48 14.113636,48 H 33.886364 C 41.633522,48 48,41.642047 48,33.886364 V 14.113636 C 48,6.3664778 41.642047,0 33.886364,0 Z m 0,4.3636364 h 19.772728 c 5.394885,0 9.75,4.3551141 9.75,9.7499996 v 19.772728 c 0,5.394885 -4.355115,9.75 -9.75,9.75 H 14.113636 c -5.3948855,0 -9.7499996,-4.355115 -9.7499996,-9.75 V 14.113636 c 0,-5.3948855 4.3551141,-9.7499996 9.7499996,-9.7499996 z m 22.772728,4.7727272 c -1.099432,0 -1.977273,0.8778414 -1.977273,1.9772724 0,1.099432 0.877841,1.977273 1.977273,1.977273 1.099431,0 1.977272,-0.877841 1.977272,-1.977273 0,-1.099431 -0.877841,-1.9772724 -1.977272,-1.9772724 z M 24,10.909091 c -7.201704,0 -13.090909,5.889205 -13.090909,13.090909 0,7.201704 5.889205,13.090909 13.090909,13.090909 7.201704,0 13.090909,-5.889205 13.090909,-13.090909 0,-7.201704 -5.889205,-13.090909 -13.090909,-13.090909 z m 0,4.363636 c 4.849431,0 8.727273,3.877842 8.727273,8.727273 0,4.849431 -3.877842,8.727273 -8.727273,8.727273 -4.849431,0 -8.727273,-3.877842 -8.727273,-8.727273 0,-4.849431 3.877842,-8.727273 8.727273,-8.727273 z"
     id="path183"
     style="stroke-width:2.18182" />
</svg>
